# xmcd CD database file
#
# Track frame offsets:
#	182
#	12825
#	25147
#	34427
#	44985
#	55895
#	68982
#	80732
#	91247
#	100715
#	113915
#	123610
#	134195
#	144760
#
# Disc length: 2033 seconds
#
# Revision: 1
# Processed by: cddbd v1.5PL3 Copyright (c) Steve Scherf et al.
# Submitted via: CDex 1.51
#
DISCID=cc07ef0e
DTITLE=Various Artist - Swing Dance Special: The Ultimate Collection [CD3: Gotham House Party)
DYEAR=1999
DGENRE=Swing
TTITLE0=Drinking Beer - J.B. Summers and Tiny Grimes
TTITLE1=Stomp - Bill Jennings
TTITLE2=Roly Poly Mama - Harry Crafton
TTITLE3=That's Right - Eddie Cole
TTITLE4=Mel's Jump - Sax Gill
TTITLE5=Dual Trumpet Blues - Frank Motley
TTITLE6=I'm Free - Charlie Gonzalez
TTITLE7=Hey Everybody - Jimmy Preston
TTITLE8=I Ain't Mad At You - Jones Boys
TTITLE9=House Party - TNT Tribble
TTITLE10=Paradise Rock - Johnny Sparrow
TTITLE11=Corn Pone - Daisy Mae and Her Hep Cats
TTITLE12=Danny's Blues - Danny Turner
TTITLE13=T.N/T. Trebble - Red Hot Boogie
EXTD=YEAR: 1999
EXTT0=
EXTT1=
EXTT2=
EXTT3=
EXTT4=
EXTT5=
EXTT6=
EXTT7=
EXTT8=
EXTT9=
EXTT10=
EXTT11=
EXTT12=
EXTT13=
PLAYORDER=
